HIERARCHY
ROOT hip
{
  OFFSET 0 0 0
  CHANNELS 6 Xposition Yposition Zposition Zrotation Yrotation Xrotation
  JOINT abdomen
  {
    OFFSET 0 20.6881 -0.73152
    CHANNELS 3 Zrotation Xrotation Yrotation
    JOINT chest
    {
      OFFSET 0 11.7043 -0.48768
      CHANNELS 3 Zrotation Xrotation Yrotation
      JOINT neck
      {
        OFFSET 0 22.1894 -2.19456
        CHANNELS 3 Zrotation Xrotation Yrotation
        JOINT head
        {
          OFFSET -0.24384 7.07133 1.2192
          CHANNELS 3 Zrotation Xrotation Yrotation
          JOINT leftEye
          {
            OFFSET 4.14528 8.04674 8.04672
            CHANNELS 3 Zrotation Xrotation Yrotation
            End Site
            {
              OFFSET 1 0 0
            }
          }
          JOINT rightEye
          {
            OFFSET -3.6576 8.04674 8.04672
            CHANNELS 3 Zrotation Xrotation Yrotation
            End Site
            {
              OFFSET 1 0 0
            }
          }
        }
      }
      JOINT rCollar
      {
        OFFSET -2.68224 19.2634 -4.8768
        CHANNELS 3 Zrotation Xrotation Yrotation
        JOINT rShldr
        {
          OFFSET -8.77824 -1.95073 1.46304
          CHANNELS 3 Zrotation Xrotation Yrotation
          JOINT rForeArm
          {
            OFFSET -28.1742 -1.7115 0.48768
            CHANNELS 3 Zrotation Xrotation Yrotation
            JOINT rHand
            {
              OFFSET -22.5879 0.773209 7.07136
              CHANNELS 3 Zrotation Xrotation Yrotation
              JOINT rThumb1
              {
                OFFSET -1.2192 -0.487915 3.41376
                CHANNELS 3 Zrotation Xrotation Yrotation
                JOINT rThumb2
                {
                  OFFSET -3.37035 -0.52449 3.41376
                  CHANNELS 3 Zrotation Xrotation Yrotation
                  End Site
                  {
                    OFFSET -1.78271 -1.18214 1.43049
                  }
                }
              }
              JOINT rIndex1
              {
                OFFSET -7.75947 0.938293 5.60832
                CHANNELS 3 Zrotation Xrotation Yrotation
                JOINT rIndex2
                {
                  OFFSET -2.54057 -0.884171 1.56538
                  CHANNELS 3 Zrotation Xrotation Yrotation
                  End Site
                  {
                    OFFSET -1.62519 -0.234802 1.16502
                  }
                }
              }
              JOINT rMid1
              {
                OFFSET -8.24714 1.18213 3.41376
                CHANNELS 3 Zrotation Xrotation Yrotation
                JOINT rMid2
                {
                  OFFSET -3.10165 -0.590103 1.0647
                  CHANNELS 3 Zrotation Xrotation Yrotation
                  End Site
                  {
                    OFFSET -2.48547 -0.328903 0.83742
                  }
                }
              }
              JOINT rRing1
              {
                OFFSET -8.82822 0.546677 1.51678
                CHANNELS 3 Zrotation Xrotation Yrotation
                JOINT rRing2
                {
                  OFFSET -2.60934 -0.819778 -0.0198488
                  CHANNELS 3 Zrotation Xrotation Yrotation
                  End Site
                  {
                    OFFSET -2.33842 -0.294052 0.168128
                  }
                }
              }
              JOINT rPinky1
              {
                OFFSET -8.27202 -0.0477905 -0.4584
                CHANNELS 3 Zrotation Xrotation Yrotation
                JOINT rPinky2
                {
                  OFFSET -1.82734 -0.647385 -0.700984
                  CHANNELS 3 Zrotation Xrotation Yrotation
                  End Site
                  {
                    OFFSET -1.69225 -0.51767 -0.607171
                  }
                }
              }
            }
          }
        }
      }
      JOINT lCollar
      {
        OFFSET 2.68224 19.2634 -4.8768
        CHANNELS 3 Zrotation Xrotation Yrotation
        JOINT lShldr
        {
          OFFSET 8.77824 -1.95073 1.46304
          CHANNELS 3 Zrotation Xrotation Yrotation
          JOINT lForeArm
          {
            OFFSET 28.1742 -1.7115 0.48768
            CHANNELS 3 Zrotation Xrotation Yrotation
            JOINT lHand
            {
              OFFSET 22.5879 0.773209 7.07136
              CHANNELS 3 Zrotation Xrotation Yrotation
              JOINT lThumb1
              {
                OFFSET 1.2192 -0.487915 3.41376
                CHANNELS 3 Zrotation Xrotation Yrotation
                JOINT lThumb2
                {
                  OFFSET 3.37035 -0.52449 3.41376
                  CHANNELS 3 Zrotation Xrotation Yrotation
                  End Site
                  {
                    OFFSET 1.78271 -1.18214 1.43049
                  }
                }
              }
              JOINT lIndex1
              {
                OFFSET 7.75947 0.938293 5.60832
                CHANNELS 3 Zrotation Xrotation Yrotation
                JOINT lIndex2
                {
                  OFFSET 2.54057 -0.884171 1.56538
                  CHANNELS 3 Zrotation Xrotation Yrotation
                  End Site
                  {
                    OFFSET 1.62519 -0.234802 1.16502
                  }
                }
              }
              JOINT lMid1
              {
                OFFSET 8.24714 1.18213 3.41376
                CHANNELS 3 Zrotation Xrotation Yrotation
                JOINT lMid2
                {
                  OFFSET 3.10165 -0.590103 1.0647
                  CHANNELS 3 Zrotation Xrotation Yrotation
                  End Site
                  {
                    OFFSET 2.48547 -0.328903 0.83742
                  }
                }
              }
              JOINT lRing1
              {
                OFFSET 8.82822 0.546677 1.51678
                CHANNELS 3 Zrotation Xrotation Yrotation
                JOINT lRing2
                {
                  OFFSET 2.60934 -0.819778 -0.0198488
                  CHANNELS 3 Zrotation Xrotation Yrotation
                  End Site
                  {
                    OFFSET 2.33842 -0.294052 0.168128
                  }
                }
              }
              JOINT lPinky1
              {
                OFFSET 8.27202 -0.0477905 -0.4584
                CHANNELS 3 Zrotation Xrotation Yrotation
                JOINT lPinky2
                {
                  OFFSET 1.82734 -0.647385 -0.700984
                  CHANNELS 3 Zrotation Xrotation Yrotation
                  End Site
                  {
                    OFFSET 1.69225 -0.51767 -0.607171
                  }
                }
              }
            }
          }
        }
      }
    }
  }
  JOINT rButtock
  {
    OFFSET -8.77824 4.35084 1.2192
    CHANNELS 3 Zrotation Xrotation Yrotation
    JOINT rThigh
    {
      OFFSET 0 -1.70687 -2.19456
      CHANNELS 3 Zrotation Xrotation Yrotation
      JOINT rShin
      {
        OFFSET 0 -36.8199 0.73152
        CHANNELS 3 Zrotation Xrotation Yrotation
        JOINT rFoot
        {
          OFFSET 0.73152 -45.1104 -5.12064
          CHANNELS 3 Zrotation Xrotation Yrotation
          End Site
          {
            OFFSET -1.1221 -3.69964 12.103
          }
        }
      }
    }
  }
  JOINT lButtock
  {
    OFFSET 8.77824 4.35084 1.2192
    CHANNELS 3 Zrotation Xrotation Yrotation
    JOINT lThigh
    {
      OFFSET 0 -1.70687 -2.19456
      CHANNELS 3 Zrotation Xrotation Yrotation
      JOINT lShin
      {
        OFFSET 0 -36.8199 0.73152
        CHANNELS 3 Zrotation Xrotation Yrotation
        JOINT lFoot
        {
          OFFSET -0.73152 -45.1104 -5.12064
          CHANNELS 3 Zrotation Xrotation Yrotation
          End Site
          {
            OFFSET 1.1221 -3.69964 12.103
          }
        }
      }
    }
  }
}
MOTION
Frames:	4
Frame Time:	0.03333
0.007540000237745128 57.50289816947379 -2.9770000617828223 2.544600009918213 3.1655001640319824 3.66279935836792 -10.937600135803223 22.977998733520508 4.16378927230835 6.294401168823242 -8.782739639282227 1.121959924697876 -4.253920555114746 17.18869972229004 -2.830470085144043 8.574190139770508 -39.01280212402344 -2.8260490894317627 -0.0 0.0 -0.0 -0.0 0.0 -0.0 -5.87414977228605e-15 -4.284180161236856e-14 1.3550200462441816e-16 26.379499435424805 18.940200805664062 55.88420104980469 -17.918901443481445 -10.599899291992188 33.83839416503906 -0.1702679991722107 11.682699203491211 1.6652498245239258 1.5847501089183424e-09 8.100829035351254e-11 4.5758000166706836e-10 2.7466500185369114e-09 2.660179854174771e-10 7.732669504711964e-10 1.5847501089183424e-09 8.100599357963034e-11 4.575709811049933e-10 7.730909824371338 5.474879741668701 0.4173140823841095 1.5847501089183424e-09 8.101219695078044e-11 4.5758299926923485e-10 2.9055399894714355 0.9651829600334167 0.10290199518203735 1.5847599899032616e-09 8.101649906500086e-11 4.5758197231293707e-10 10.27859878540039 0.73180091381073 0.025912316516041756 1.5847501089183424e-09 8.100529969023995e-11 4.575949896779008e-10 2.221669912338257 -0.733487069606781 -0.208919957280159 -6.125200173456857e-15 -4.283589948679209e-14 -6.095710324351505e-17 -23.113698959350586 39.504310607910156 -59.216793060302734 25.34510040283203 -21.85770034790039 -54.38679504394531 3.373469591140747 -45.10420227050781 8.109748840332031 4.2069500660879555e-10 7.153399650405845e-09 1.3392399411671363e-09 6.769689808727719e-10 1.2341098809542927e-08 2.326349779480097e-09 4.2069300820735123e-10 7.153399650405845e-09 1.3392299491599147e-09 -7.730909824371338 5.474879741668701 -0.4173140823841095 4.206940074080734e-10 7.1534098644576716e-09 1.3392399411671363e-09 -2.9055399894714355 0.9651829600334167 -0.10290199518203735 4.2068898364888696e-10 7.153399650405845e-09 1.3392299491599147e-09 -10.27859878540039 0.73180091381073 -0.025912316516041756 4.2069697725466426e-10 7.153399650405845e-09 1.3392299491599147e-09 -2.221669912338257 -0.733487069606781 0.208919957280159 -2.0321699480147914e-16 0.0 -3.8825099822884138e-19 -20.214000701904297 -64.98719787597656 -28.646203994750977 -9.912248611450195 84.37712097167969 10.3381986618042 -4.568769931793213 -7.697531700134277 -15.935798645019531 2.0321699480147914e-16 0.0 3.8825099822884138e-19 5.598329544067383 -38.27320098876953 16.834598541259766 2.3987202644348145 74.99920654296875 -4.347001075744629 13.069799423217773 -17.63210105895996 34.8046989440918
-0.02055999831728235 57.30039672096125 -5.941000139140995 1.628600001335144 2.0248000621795654 4.099699974060059 -10.479899406433105 22.849700927734375 4.610310077667236 6.084579944610596 -8.735540390014648 1.22393000125885 -4.240900039672852 16.99240493774414 -2.5887303352355957 8.879229545593262 -38.96950149536133 -2.2155299186706543 -0.0 0.0 -0.0 -0.0 0.0 -0.0 3.1467700895102674e-14 -8.804079427299216e-14 1.458700002422101e-14 26.849496841430664 19.09580421447754 57.218997955322266 -17.692298889160156 -10.359700202941895 33.333702087402344 -0.1774209886789322 11.914698600769043 1.6993300914764404 1.2291599960079225e-09 -1.1330899551964535e-09 3.960410055459107e-10 2.130909892983368e-09 -1.8630998965818435e-09 6.702449706352809e-10 1.2291599960079225e-09 -1.1330899551964535e-09 3.960360095422999e-10 7.730909824371338 5.474879741668701 0.4173140823841095 1.2291599960079225e-09 -1.1330899551964535e-09 3.9604799995096585e-10 2.9055399894714355 0.9651829600334167 0.10290199518203735 1.229169988015144e-09 -1.1330899551964535e-09 3.9605099755313233e-10 10.27859878540039 0.73180091381073 0.025912316516041756 1.2291599960079225e-09 -1.1330899551964535e-09 3.960629879617983e-10 2.221669912338257 -0.733487069606781 -0.208919957280159 3.1325795771383266e-14 -8.803349623711862e-14 1.4385899155949788e-14 -17.333398818969727 37.720096588134766 -66.74800109863281 26.14409828186035 -23.820201873779297 -57.2028923034668 3.1083998680114746 -43.733497619628906 7.729419708251953 3.4919397928767637e-10 7.844120020195078e-09 1.6494700050273536e-09 5.43059985869121e-10 1.3469499293705667e-08 2.858119962922956e-09 3.4919198088623205e-10 7.844109362054041e-09 1.6494700050273536e-09 -7.730909824371338 5.474879741668701 -0.4173140823841095 3.4919500624397415e-10 7.844120020195078e-09 1.6494599019978295e-09 -2.9055399894714355 0.9651829600334167 -0.10290199518203735 3.4919198088623205e-10 7.844109362054041e-09 1.6494700050273536e-09 -10.27859878540039 0.73180091381073 -0.025912316516041756 3.4919800384614064e-10 7.844109362054041e-09 1.6494599019978295e-09 -2.221669912338257 -0.733487069606781 0.208919957280159 -2.0321699480147914e-16 0.0 -3.8825099822884138e-19 -17.098901748657227 -62.2427978515625 -26.563398361206055 -142.50498962402344 88.21819305419922 142.99098205566406 -4.873789310455322 -9.212939262390137 -16.41969871520996 2.0321699480147914e-16 0.0 3.8825099822884138e-19 8.217450141906738 -41.725502014160156 20.000797271728516 2.806349992752075 76.17720031738281 -4.486209869384766 12.541499137878418 -16.708101272583008 33.65380096435547
-0.10764000103647897 57.25299862321595 -8.836000151399817 0.863099992275238 1.160600185394287 4.675000190734863 -9.930779457092285 22.65900230407715 4.922280311584473 6.00106954574585 -8.770550727844238 1.3080099821090698 -4.298749923706055 16.781299591064453 -2.383849859237671 9.183600425720215 -38.8484992980957 -1.6859411001205444 -0.0 0.0 -0.0 -0.0 0.0 -0.0 -1.6435700253580356e-14 -1.4980800887992585e-13 6.836720131128205e-15 27.11500358581543 19.44719696044922 58.66859436035156 -17.468297958374023 -10.126300811767578 32.83789825439453 -0.17834699153900146 11.944100379943848 1.7036501169204712 1.807969995937242e-09 6.058860010926814e-12 4.89538964920655e-10 3.1306099934624854e-09 1.4312098728375133e-10 8.247860172616583e-10 1.8079798769221611e-09 6.062399714179545e-12 4.89532969716322e-10 7.730909824371338 5.474879741668701 0.4173140823841095 1.807969995937242e-09 6.055989477254942e-12 4.89544016435417e-10 2.9055399894714355 0.9651829600334167 0.10290199518203735 1.8079798769221611e-09 6.043750135770187e-12 4.895509553293209e-10 10.27859878540039 0.73180091381073 0.025912316516041756 1.807969995937242e-09 6.057379858120937e-12 4.895659988513046e-10 2.221669912338257 -0.733487069606781 -0.208919957280159 -1.645369970370951e-14 -1.498100011014178e-13 6.6309402528563505e-15 -11.08849811553955 35.40259552001953 -74.625 27.032299041748047 -26.497299194335938 -61.6609992980957 2.8013598918914795 -41.9795036315918 7.271450996398926 -5.586790058353941e-11 1.6806400715552172e-09 1.7459200751801518e-10 -1.0165399771944195e-10 2.875310212147042e-09 3.0066096834424627e-10 -5.5868903253708524e-11 1.680619865496169e-09 1.7459900192307032e-10 -7.730909824371338 5.474879741668701 -0.4173140823841095 -5.5864396442117936e-11 1.680619865496169e-09 1.745799893537736e-10 -2.9055399894714355 0.9651829600334167 -0.10290199518203735 -5.58716996279518e-11 1.6806299685256931e-09 1.745909944395052e-10 -10.27859878540039 0.73180091381073 -0.025912316516041756 -5.586200252372109e-11 1.6806299685256931e-09 1.7457897627526364e-10 -2.221669912338257 -0.733487069606781 0.208919957280159 -2.0321699480147914e-16 0.0 -3.8825099822884138e-19 -14.607001304626465 -57.6465950012207 -24.8131046295166 -170.01800537109375 83.22760009765625 170.5970001220703 -5.302110195159912 -10.19379997253418 -18.315099716186523 2.0321699480147914e-16 0.0 3.8825099822884138e-19 10.849198341369629 -45.044307708740234 22.892597198486328 3.1526999473571777 76.82581329345703 -4.523819923400879 11.806800842285156 -15.402198791503906 32.37579345703125
-0.26713000077751453 57.413299747941565 -11.613000108010207 0.17390000820159912 0.4958999454975128 5.3796000480651855 -9.414508819580078 22.31800079345703 5.224730491638184 5.924279689788818 -8.917349815368652 1.3952398300170898 -4.424699783325195 16.58030128479004 -2.2317097187042236 9.606669425964355 -38.62260055541992 -1.232241153717041 -0.0 0.0 -0.0 -0.0 0.0 -0.0 -4.294170067816773e-14 -7.620679532294866e-14 4.454019838633647e-15 27.248201370239258 20.01449966430664 60.21339797973633 -17.24770164489746 -9.900131225585938 32.35350036621094 -0.1699569970369339 11.673700332641602 1.6639199256896973 5.261619473451162e-10 7.768879983771626e-10 1.1191800264320761e-10 9.095970088246474e-10 1.3948299182331425e-09 1.8591200801054697e-10 5.261709956627669e-10 7.768939935814956e-10 1.1191200049998073e-10 7.730909824371338 5.474879741668701 0.4173140823841095 5.261629465458384e-10 7.768850007749961e-10 1.1191800264320761e-10 2.9055399894714355 0.9651829600334167 0.10290199518203735 5.261669988598783e-10 7.768750087677745e-10 1.1192499704826275e-10 10.27859878540039 0.73180091381073 0.025912316516041756 5.261559521407833e-10 7.768899412674557e-10 1.1193799359654477e-10 2.221669912338257 -0.733487069606781 -0.208919957280159 -4.297220064053246e-14 -7.621129476196448e-14 4.280079928849082e-15 -4.9877495765686035 32.46139907836914 -83.07349395751953 27.830299377441406 -29.565397262573242 -66.38740539550781 2.2358996868133545 -38.51490020751953 6.41526985168457 2.2458000736857997e-10 -9.998529781896082e-10 8.023839231929841e-11 3.9034700471951567e-10 -1.7090199255775929e-09 1.4652699886763543e-10 2.2458099269151433e-10 -9.998669669997184e-10 8.024879372126037e-11 -7.730909824371338 5.474879741668701 -0.4173140823841095 2.2458500337219078e-10 -9.998719630033293e-10 8.022819908415357e-11 -2.9055399894714355 0.9651829600334167 -0.10290199518203735 2.2457601056569132e-10 -9.998589733939411e-10 8.023869763063018e-11 -10.27859878540039 0.73180091381073 -0.025912316516041756 2.245869878958473e-10 -9.998569749924968e-10 8.022719988343141e-11 -2.221669912338257 -0.733487069606781 0.208919957280159 -2.0321699480147914e-16 0.0 -3.8825099822884138e-19 -12.558300971984863 -51.82780075073242 -22.787797927856445 -172.97698974609375 79.9690170288086 173.6739959716797 -5.291949272155762 -10.77230167388916 -19.24599838256836 2.0321699480147914e-16 0.0 3.8825099822884138e-19 13.525400161743164 -48.02130126953125 25.689102172851562 3.3261799812316895 76.91529846191406 -4.376539707183838 10.94279956817627 -13.913500785827637 30.998695373535156
